<?xml version="1.0" standalone="no"?>
<!DOCTYPE svg PUBLIC "-//W3C//DTD SVG 20010904//EN"
 "http://www.w3.org/TR/2001/REC-SVG-20010904/DTD/svg10.dtd">
<svg version="1.0" xmlns="http://www.w3.org/2000/svg"
 width="225.000000pt" height="224.000000pt" viewBox="0 0 225.000000 224.000000"
 preserveAspectRatio="xMidYMid meet">

<g transform="translate(0.000000,224.000000) scale(0.100000,-0.100000)"
fill="#000000" stroke="none">
<path d="M550 1645 c0 -2 68 -109 150 -236 83 -128 149 -237 147 -243 -3 -6
-75 -119 -162 -250 -86 -131 -159 -245 -162 -252 -4 -11 16 -14 100 -14 57 0
124 3 148 6 l44 6 90 140 c50 77 93 142 96 144 4 2 50 -62 102 -144 l95 -147
109 -3 c59 -1 125 1 146 5 l37 8 -144 215 -144 215 40 7 c67 12 99 58 63 88
-14 11 -13 14 1 24 10 8 14 23 12 41 -2 23 -9 31 -28 33 -14 2 -31 5 -37 7 -8
3 28 68 97 174 61 93 110 172 110 175 0 4 -64 5 -142 4 l-143 -3 -80 -132
c-44 -73 -83 -132 -86 -133 -3 0 -39 53 -79 118 -40 64 -80 125 -88 135 -13
15 -34 17 -154 17 -76 0 -138 -2 -138 -5z m733 -391 c14 -15 -8 -34 -39 -34
-32 0 -45 16 -27 33 8 9 58 9 66 1z m-5 -79 c14 -14 -18 -40 -52 -43 -38 -3
-40 -1 -29 37 5 20 10 22 41 18 19 -4 37 -9 40 -12z"/>
<path d="M1384 1286 c-7 -19 -34 -157 -34 -172 0 -21 125 -20 134 1 4 12 -4
15 -44 15 -28 0 -50 3 -50 8 1 4 7 36 15 72 18 83 18 87 -1 87 -9 0 -18 -5
-20 -11z"/>
<path d="M1574 1281 c-55 -34 -70 -116 -29 -156 60 -61 165 2 165 99 0 61 -78
94 -136 57z m80 -27 c24 -23 20 -71 -9 -99 -28 -29 -47 -31 -69 -9 -20 19 -20
47 -1 84 21 41 53 51 79 24z"/>
<path d="M1805 1291 c-53 -22 -83 -93 -60 -147 15 -37 46 -50 98 -40 47 9 57
18 64 59 l6 37 -42 0 c-30 0 -41 -4 -41 -15 0 -8 9 -15 20 -15 29 0 25 -27 -6
-34 -61 -16 -90 28 -61 90 20 40 59 54 86 30 19 -17 51 -22 51 -7 0 16 -52 51
-74 50 -11 0 -30 -4 -41 -8z"/>
</g>
</svg>
